<?xml version="1.0" standalone="no"?>
<!DOCTYPE svg PUBLIC "-//W3C//DTD SVG 20010904//EN"
 "http://www.w3.org/TR/2001/REC-SVG-20010904/DTD/svg10.dtd">
<svg version="1.0" xmlns="http://www.w3.org/2000/svg"
 width="300.000000pt" height="305.000000pt" viewBox="0 0 300.000000 305.000000"
 preserveAspectRatio="xMidYMid meet">
<metadata>
Created by potrace 1.10, written by Peter Selinger 2001-2011
</metadata>
<g transform="translate(0.000000,305.000000) scale(0.100000,-0.100000)"
fill="#000000" stroke="none">
<path d="M1480 2143 c0 -13 -9 -37 -20 -55 -35 -58 -18 -178 25 -178 20 0 46
35 52 72 6 39 -17 131 -41 163 -15 20 -15 20 -16 -2z m20 -125 c0 -35 -10 -59
-21 -52 -10 6 -12 64 -3 89 9 23 24 0 24 -37z"/>
<path d="M1004 1835 c-5 -16 -8 -66 -8 -110 0 -102 31 -173 107 -249 46 -46
158 -116 185 -116 15 0 -7 101 -35 159 -15 32 -63 93 -119 152 -72 77 -97 109
-108 146 l-14 48 -8 -30z m193 -283 c29 -43 61 -132 47 -132 -12 0 -64 29 -88
50 -54 46 -77 75 -101 125 -24 51 -28 68 -26 118 1 28 3 26 67 -40 36 -37 81
-92 101 -121z"/>
<path d="M1426 1808 c-4 -29 -22 -133 -41 -230 -19 -97 -35 -196 -35 -220 0
-124 -143 -208 -408 -238 -102 -11 -121 -18 -206 -72 -46 -30 -69 -38 -105
-38 l-46 -1 35 -31 c119 -104 308 -130 471 -63 131 53 315 183 354 250 l25 42
0 314 c0 307 -3 339 -31 339 -3 0 -9 -24 -13 -52z m23 -358 c1 -91 -17 -171
-53 -235 -27 -49 -28 -74 -1 -39 8 10 14 15 14 9 0 -18 -27 -47 -34 -36 -3 7
-32 -9 -71 -39 -142 -109 -335 -180 -490 -180 -73 0 -86 3 -110 24 l-28 23 60
38 c72 46 150 75 203 75 87 0 270 55 337 101 72 49 95 88 105 176 5 43 19 125
31 183 l23 105 6 -65 c4 -36 7 -99 8 -140z m-289 -458 c0 -19 -179 -83 -229
-81 -14 0 15 13 64 27 50 15 104 35 120 44 35 19 45 21 45 10z"/>
<path d="M1520 1841 c-16 -31 -13 -614 4 -654 35 -84 258 -237 426 -292 78
-26 198 -24 272 4 57 22 178 96 178 109 0 4 -20 6 -45 4 -40 -4 -54 1 -110 38
-76 49 -123 65 -228 74 -96 8 -190 37 -280 84 -79 41 -92 60 -102 152 -4 36
-22 144 -41 241 -19 96 -34 194 -34 217 0 46 -21 58 -40 23z m77 -436 c24
-169 42 -192 198 -257 73 -31 195 -58 256 -58 49 0 105 -21 189 -71 39 -23 70
-43 70 -44 0 -2 -15 -13 -34 -24 -42 -26 -158 -28 -256 -5 -78 18 -225 86
-308 142 -152 104 -183 191 -173 482 l3 105 19 -75 c10 -41 27 -129 36 -195z
m16 -257 c11 -10 15 -18 10 -18 -16 0 -73 68 -73 88 0 11 8 4 21 -18 12 -19
31 -43 42 -52z m127 -99 c13 -17 183 -92 250 -111 90 -24 103 -33 35 -24 -57
8 -143 39 -195 71 -19 12 -56 34 -82 49 -26 14 -50 31 -54 37 -6 11 37 -10 46
-22z"/>
<path d="M1952 1816 c-9 -33 -33 -67 -102 -141 -97 -105 -146 -188 -156 -267
-4 -27 -4 -48 0 -48 4 0 33 12 64 28 82 40 156 112 194 190 31 62 33 73 32
164 0 111 -14 142 -32 74z m-12 -180 c-15 -51 -52 -109 -92 -144 -17 -15 -36
-31 -42 -37 -20 -18 -66 -39 -72 -32 -20 20 55 145 151 251 l60 66 3 -33 c2
-17 -2 -50 -8 -71z"/>
<path d="M1046 1827 c13 -42 49 -84 119 -141 75 -61 121 -114 137 -158 5 -16
13 -28 17 -28 14 0 34 176 23 197 -28 52 -151 123 -213 123 -11 0 -36 7 -55
15 -35 14 -35 14 -28 -8z m168 -63 c64 -30 98 -67 99 -107 0 -20 -2 -40 -6
-44 -4 -3 -24 9 -45 29 -20 19 -62 54 -94 77 -31 23 -59 49 -62 58 -5 13 0 15
36 9 23 -4 56 -14 72 -22z"/>
<path d="M1900 1835 c-19 -7 -57 -18 -85 -24 -66 -16 -128 -53 -161 -96 -26
-34 -26 -37 -15 -98 25 -134 19 -126 51 -71 15 27 52 71 81 98 30 27 71 65 92
84 33 30 84 110 75 116 -2 2 -19 -3 -38 -9z m-32 -62 c-2 -10 -33 -40 -70 -68
-37 -27 -78 -62 -92 -77 l-24 -27 -11 31 c-18 50 14 90 104 133 61 29 98 32
93 8z"/>
<path d="M785 1475 c-27 -8 -61 -11 -75 -8 l-25 6 30 -33 c43 -46 95 -69 204
-91 101 -21 184 -54 239 -95 18 -14 35 -24 38 -22 2 3 -4 27 -13 54 -12 31
-38 69 -73 105 -88 91 -197 119 -325 84z m227 -48 c52 -26 108 -80 95 -94 -3
-3 -30 4 -59 15 -29 11 -89 25 -133 32 -80 12 -145 35 -145 51 0 14 62 27 125
25 43 -1 77 -10 117 -29z"/>
<path d="M1993 1471 c-92 -31 -158 -96 -194 -190 -10 -28 -17 -51 -15 -51 2 0
27 15 55 34 64 43 141 72 227 86 89 14 154 43 195 87 29 30 30 34 12 29 -12
-4 -48 0 -81 9 -77 20 -135 19 -199 -4z m173 -22 c24 -6 44 -15 44 -19 0 -14
-77 -39 -152 -51 -40 -6 -97 -20 -126 -31 -29 -11 -56 -18 -58 -15 -11 11 31
59 70 80 91 49 139 57 222 36z"/>
<path d="M670 1453 c0 -26 50 -146 76 -185 16 -22 52 -56 81 -75 l52 -35 103
15 c57 9 114 20 128 25 24 9 23 10 -30 45 -30 20 -102 52 -160 70 -135 44
-181 68 -219 114 -17 21 -31 32 -31 26z m108 -117 c15 -7 63 -26 107 -41 44
-15 98 -36 119 -47 34 -17 37 -22 23 -30 -10 -5 -48 -12 -86 -15 -61 -5 -72
-3 -104 19 -42 28 -72 64 -87 102 -11 30 -9 31 28 12z"/>
<path d="M2281 1429 c-37 -47 -87 -75 -196 -110 -107 -34 -175 -65 -215 -97
l-24 -19 54 -12 c30 -7 88 -16 128 -22 70 -10 75 -9 117 15 55 33 92 76 125
151 25 54 47 126 38 124 -2 0 -14 -14 -27 -30z m-51 -106 c-47 -88 -97 -123
-172 -122 -29 0 -69 6 -88 14 l-35 13 48 21 c27 11 83 33 125 47 42 15 90 35
106 45 17 9 32 18 33 18 2 1 -6 -16 -17 -36z"/>
</g>
</svg>
